<svg width="108" height="27" viewBox="0 0 108 27" fill="none" xmlns="http://www.w3.org/2000/svg">
<path d="M0 2H18.308V6.413L13.775 22.266V26H0V2Z" fill="#FF0000"/>
<path d="M18.341 22.2909V15.6699H22.967V12.5369H18.341V9.55989H24.001V6.33789H14.854L14.638 6.98889L13.667 7.3259V22.2919L18.341 22.2909Z" fill="black"/>
<path d="M13.719 22.2909V16.1139L18.319 6.33789H13.872L11.572 12.0039H11.521L9.34802 6.33789H4.84802L9.39902 16.1139V22.2909H13.719Z" fill="white"/>
<path d="M38.446 23V16.62L42.406 7.204H39.678L37.148 13.628H37.104L34.706 7.204H31.934L35.828 16.62V23H38.446ZM45.6067 23.198C48.3347 23.198 49.7867 21.394 49.7867 17.324C49.7867 13.364 48.4447 11.34 45.6067 11.34C42.7467 11.34 41.3827 13.364 41.3827 17.324C41.3827 21.394 42.8347 23.198 45.6067 23.198ZM45.6067 21.284C44.3087 21.284 43.8027 20.03 43.8027 17.324C43.8027 14.662 44.2867 13.276 45.6067 13.276C46.8827 13.276 47.3667 14.662 47.3667 17.324C47.3667 20.03 46.8827 21.284 45.6067 21.284ZM59.2986 23V11.56H56.9446V19.854C56.2626 20.668 55.6686 20.998 55.0746 20.998C54.2166 20.998 53.9086 20.492 53.9086 19.238V11.56H51.5326V19.502C51.5326 20.756 51.6426 21.592 52.0166 22.186C52.3906 22.846 53.0506 23.198 54.0186 23.198C55.1846 23.198 56.0646 22.692 57.0326 21.636V23H59.2986ZM64.4708 23V15.982H68.6288V13.694H64.4708V9.58H70.0588V7.204H61.8528V23H64.4708ZM74.5676 23.198C77.2956 23.198 78.7476 21.394 78.7476 17.324C78.7476 13.364 77.4056 11.34 74.5676 11.34C71.7076 11.34 70.3436 13.364 70.3436 17.324C70.3436 21.394 71.7956 23.198 74.5676 23.198ZM74.5676 21.284C73.2696 21.284 72.7636 20.03 72.7636 17.324C72.7636 14.662 73.2476 13.276 74.5676 13.276C75.8436 13.276 76.3276 14.662 76.3276 17.324C76.3276 20.03 75.8436 21.284 74.5676 21.284ZM86.1695 19.084C85.8175 20.624 85.2895 21.218 84.3215 21.218C83.0895 21.218 82.4735 20.228 82.4735 17.302C82.4735 14.86 83.0895 13.32 84.3435 13.32C85.2675 13.32 85.7295 13.98 86.0375 15.256L88.1275 14.926C87.7315 12.506 86.5875 11.34 84.2995 11.34C81.2195 11.34 80.0975 13.892 80.0975 17.302C80.0975 21.13 81.3075 23.198 84.2115 23.198C86.4775 23.198 87.6435 22.054 88.2155 19.524L86.1695 19.084ZM97.5408 23V11.56H95.1867V19.854C94.5048 20.668 93.9108 20.998 93.3168 20.998C92.4588 20.998 92.1508 20.492 92.1508 19.238V11.56H89.7748V19.502C89.7748 20.756 89.8848 21.592 90.2588 22.186C90.6328 22.846 91.2928 23.198 92.2608 23.198C93.4268 23.198 94.3068 22.692 95.2748 21.636V23H97.5408ZM106.299 14.09C105.815 12.286 104.803 11.34 102.757 11.34C100.667 11.34 99.369 12.572 99.369 14.42C99.369 18.182 104.341 17.72 104.341 20.14C104.341 20.91 103.769 21.372 102.911 21.372C101.921 21.372 101.415 20.844 101.019 19.7L99.105 20.228C99.655 22.274 100.711 23.198 102.889 23.198C105.177 23.198 106.585 22.032 106.585 19.942C106.585 16.004 101.547 16.4 101.547 14.31C101.547 13.65 101.987 13.188 102.779 13.188C103.571 13.188 104.077 13.562 104.451 14.596L106.299 14.09Z" fill="black"/>
</svg>
